HIERARCHY
ROOT Pelvis
{
	OFFSET 0.000000 0.000000 0.000000
	CHANNELS 6 Xposition Yposition Zposition Xrotation Yrotation Zrotation
	JOINT LeftUpLeg_virtual
	{
		OFFSET 0.000000 0.000000 0.000000
		CHANNELS 3 Xrotation Yrotation Zrotation
		JOINT LeftUpLeg
		{
			OFFSET 8.479700 -4.795502 -0.379100
			CHANNELS 3 Xrotation Yrotation Zrotation
			JOINT LeftLeg
			{
				OFFSET 0.024144 -32.555107 0.112900
				CHANNELS 3 Xrotation Yrotation Zrotation
				JOINT LeftFoot
				{
					OFFSET -0.024144 -32.638630 -3.012600
					CHANNELS 3 Xrotation Yrotation Zrotation
					JOINT LeftToeBase
					{
						OFFSET 0.970200 -13.225400 11.864200
						CHANNELS 3 Xrotation Yrotation Zrotation
						End Site
						{
							OFFSET 0 0 0
						}
					}
				}
			}
		}
	}
	JOINT RightUpLeg_virtual
	{
		OFFSET 0.000000 0.000000 0.000000
		CHANNELS 3 Xrotation Yrotation Zrotation
		JOINT RightUpLeg
		{
			OFFSET -8.479700 -4.795502 -0.379100
			CHANNELS 3 Xrotation Yrotation Zrotation
			JOINT RightLeg
			{
				OFFSET -0.023144 -32.555092 0.112900
				CHANNELS 3 Xrotation Yrotation Zrotation
				JOINT RightFoot
				{
					OFFSET 0.023144 -32.638641 -3.012700
					CHANNELS 3 Xrotation Yrotation Zrotation
					JOINT RightToeBase
					{
						OFFSET -0.970200 -13.225400 11.864200
						CHANNELS 3 Xrotation Yrotation Zrotation
						End Site
						{
							OFFSET 0 0 0
						}
					}
				}
			}
		}
	}
	JOINT Hips_virtual
	{
		OFFSET 0.000000 0.000000 0.000000
		CHANNELS 3 Xrotation Yrotation Zrotation
		JOINT Hips
		{
			OFFSET -0.000000 -0.000000 -0.000000
			CHANNELS 3 Xrotation Yrotation Zrotation
			JOINT Spine
			{
				OFFSET 0.000000 7.722000 1.166200
				CHANNELS 3 Xrotation Yrotation Zrotation
				JOINT Spine1
				{
					OFFSET 0.000000 12.024101 0.248800
					CHANNELS 3 Xrotation Yrotation Zrotation
					JOINT Spine2
					{
						OFFSET 0.000000 11.502998 -0.491200
						CHANNELS 3 Xrotation Yrotation Zrotation
						JOINT Neck_virtual
						{
							OFFSET 0.000000 0.000000 0.000000
							CHANNELS 3 Xrotation Yrotation Zrotation
							JOINT Neck
							{
								OFFSET 0.000000 18.430702 -3.123100
								CHANNELS 3 Xrotation Yrotation Zrotation
								JOINT Head
								{
									OFFSET 0.000000 9.051102 1.034000
									CHANNELS 3 Xrotation Yrotation Zrotation
									End Site
									{
										OFFSET 0 0 0
									}
								}
							}
						}
						JOINT LeftShoulder_virtual
						{
							OFFSET 0.000000 0.000000 0.000000
							CHANNELS 3 Xrotation Yrotation Zrotation
							JOINT LeftShoulder
							{
								OFFSET 6.197800 13.665199 -4.064700
								CHANNELS 3 Xrotation Yrotation Zrotation
								JOINT LeftArm
								{
									OFFSET 7.778100 -0.187103 -1.709300
									CHANNELS 3 Xrotation Yrotation Zrotation
									JOINT LeftForeArm
									{
										OFFSET 22.049376 0.000000 0.000000
										CHANNELS 3 Xrotation Yrotation Zrotation
										JOINT LeftHand
										{
											OFFSET 23.009392 0.000000 0.000000
											CHANNELS 3 Xrotation Yrotation Zrotation
											End Site
											{
												OFFSET 0 0 0
											}
										}
									}
								}
							}
						}
						JOINT RightShoulder_virtual
						{
							OFFSET 0.000000 0.000000 0.000000
							CHANNELS 3 Xrotation Yrotation Zrotation
							JOINT RightShoulder
							{
								OFFSET -6.197800 13.665199 -4.064700
								CHANNELS 3 Xrotation Yrotation Zrotation
								JOINT RightArm
								{
									OFFSET -7.778100 -0.187103 -1.709300
									CHANNELS 3 Xrotation Yrotation Zrotation
									JOINT RightForeArm
									{
										OFFSET -22.049376 0.000000 0.000000
										CHANNELS 3 Xrotation Yrotation Zrotation
										JOINT RightHand
										{
											OFFSET -23.009392 0.000000 0.000000
											CHANNELS 3 Xrotation Yrotation Zrotation
											End Site
											{
												OFFSET 0 0 0
											}
										}
									}
								}
							}
						}
					}
				}
			}
		}
	}
}
MOTION
Frames: 10
Frame Time: 0.03333333
-0.134147 80.337662 0.758356 0.000000 0.000000 0.000000 -0.587384 -0.364402 -0.317422 -12.300284 4.860549 8.084354 26.566379 3.848059 1.341879 -13.018423 1.563164 -9.068849 0.000000 0.000000 0.000000 -0.587384 -0.364402 -0.317422 -11.820471 1.412843 -1.917778 27.373658 -1.661226 -2.653423 -14.851796 -0.920918 5.482887 0.000000 0.000000 0.000000 -0.587384 -0.364402 -0.317422 0.000000 0.000000 0.000000 0.361242 -0.185105 0.269411 -1.750145 -0.199001 0.196420 0.000000 0.000000 0.000000 -1.750108 -0.188404 0.203701 -0.289762 -0.205837 -0.385588 0.000000 0.000000 0.000000 -1.750108 -0.188404 0.203701 0.993405 -13.202432 -11.017494 16.778891 -19.384215 -67.597371 -0.000004 -17.727281 -0.000002 0.000000 0.000000 0.000000 -1.750108 -0.188404 0.203701 1.651816 9.058837 10.503888 6.412941 25.534616 64.587512 0.000008 12.370165 -0.000007 0.000000 0.000000 0.000000 
-0.115175 80.343506 0.746668 0.000000 0.000000 0.000000 -0.575615 -0.346236 -0.282187 -12.310786 4.900310 8.015809 26.528284 3.810803 1.386796 -12.989368 1.562758 -9.086992 0.000000 0.000000 0.000000 -0.575615 -0.346236 -0.282187 -11.839143 1.386273 -2.000479 27.370436 -1.662647 -2.609465 -14.838062 -0.923064 5.480794 0.000000 0.000000 0.000000 -0.575615 -0.346236 -0.282187 0.000000 0.000000 0.000000 0.375033 -0.164279 0.248195 -1.755795 -0.176235 0.190827 0.000000 0.000000 0.000000 -1.755715 -0.166635 0.197366 -0.262666 -0.209938 -0.406779 0.000000 0.000000 0.000000 -1.755715 -0.166635 0.197366 0.994040 -13.267618 -11.041542 16.766352 -19.385892 -67.571307 0.000008 -17.712823 0.000014 0.000000 0.000000 0.000000 -1.755715 -0.166635 0.197366 1.651097 9.037781 10.513389 6.473524 25.519863 64.541429 0.000004 12.373802 -0.000010 0.000000 0.000000 0.000000 
-0.084945 80.347389 0.735691 0.000000 0.000000 0.000000 -0.563352 -0.332866 -0.232607 -12.321838 4.945872 7.921314 26.500292 3.777743 1.434351 -12.970177 1.561060 -9.102322 0.000000 0.000000 0.000000 -0.563352 -0.332866 -0.232607 -11.868932 1.351087 -2.119549 27.389158 -1.637646 -2.552162 -14.835557 -0.926450 5.478593 0.000000 0.000000 0.000000 -0.563352 -0.332866 -0.232607 0.000000 0.000000 0.000000 0.389091 -0.143012 0.223812 -1.758987 -0.152911 0.185722 0.000000 0.000000 0.000000 -1.758853 -0.144486 0.191302 -0.234934 -0.223743 -0.429562 0.000000 0.000000 0.000000 -1.758853 -0.144486 0.191302 0.994574 -13.331122 -11.067196 16.711238 -19.428796 -67.559395 0.000002 -17.694300 -0.000004 0.000000 0.000000 0.000000 -1.758853 -0.144486 0.191302 1.655696 9.081051 10.518681 6.559966 25.463661 64.487327 0.000001 12.345265 -0.000001 0.000000 0.000000 0.000000 
-0.045250 80.356491 0.721125 0.000000 0.000000 0.000000 -0.547728 -0.347472 -0.169351 -12.310218 4.977960 7.820723 26.437470 3.783982 1.436713 -12.933573 1.558987 -9.096437 0.000000 0.000000 0.000000 -0.547728 -0.347472 -0.169351 -11.899929 1.359744 -2.263070 27.387361 -1.599288 -2.481033 -14.814530 -0.929764 5.478633 0.000000 0.000000 0.000000 -0.547728 -0.347472 -0.169351 0.000000 0.000000 0.000000 0.417345 -0.114904 0.192331 -1.760835 -0.122205 0.183156 0.000000 0.000000 0.000000 -1.760679 -0.115203 0.187763 -0.200768 -0.240773 -0.429505 0.000000 0.000000 0.000000 -1.760679 -0.115203 0.187763 0.993603 -13.360153 -11.115195 16.611223 -19.504158 -67.520436 0.000000 -17.678770 0.000004 0.000000 0.000000 0.000000 -1.760679 -0.115203 0.187763 1.663817 9.137676 10.542184 6.627462 25.453458 64.389272 0.000002 12.280779 0.000004 0.000000 0.000000 0.000000 
-0.005365 80.368340 0.716196 0.000000 0.000000 0.000000 -0.564063 -0.356680 -0.148851 -12.261764 4.943089 7.778569 26.396851 3.827580 1.388486 -12.918671 1.551578 -9.084684 0.000000 0.000000 0.000000 -0.564063 -0.356680 -0.148851 -11.859829 1.319609 -2.351646 27.326246 -1.548933 -2.439171 -14.775808 -0.933733 5.481473 0.000000 0.000000 0.000000 -0.564063 -0.356680 -0.148851 0.000000 0.000000 0.000000 0.467864 -0.089311 0.182357 -1.726140 -0.094856 0.195358 0.000000 0.000000 0.000000 -1.725988 -0.088045 0.198933 -0.219294 -0.239945 -0.477885 0.000000 0.000000 0.000000 -1.725988 -0.088045 0.198933 0.991736 -13.323548 -11.148003 16.457979 -19.698184 -67.507336 -0.000002 -17.673550 -0.000017 0.000000 0.000000 0.000000 -1.725988 -0.088045 0.198933 1.661473 9.155295 10.510908 6.689136 25.490498 64.312993 -0.000002 12.254241 -0.000012 0.000000 0.000000 0.000000 
0.043333 80.387505 0.703236 0.000000 0.000000 0.000000 -0.588326 -0.380831 -0.115069 -12.182973 4.907430 7.700628 26.309376 3.903385 1.361513 -12.875936 1.546873 -9.092235 0.000000 0.000000 0.000000 -0.588326 -0.380831 -0.115069 -11.804657 1.327873 -2.464008 27.229801 -1.536487 -2.386194 -14.705908 -0.937780 5.502973 0.000000 0.000000 0.000000 -0.588326 -0.380831 -0.115069 0.000000 0.000000 0.000000 0.530385 -0.052814 0.168409 -1.677165 -0.055769 0.208069 0.000000 0.000000 0.000000 -1.677060 -0.049228 0.210133 -0.203990 -0.225839 -0.540160 0.000000 0.000000 0.000000 -1.677060 -0.049228 0.210133 0.990013 -13.383925 -11.237790 16.228485 -19.739856 -67.475794 0.000003 -17.686918 -0.000003 0.000000 0.000000 0.000000 -1.677060 -0.049228 0.210133 1.662103 9.183241 10.495750 6.763350 25.598359 64.197112 -0.000011 12.186512 0.000029 0.000000 0.000000 0.000000 
0.101951 80.402634 0.675976 0.000000 0.000000 0.000000 -0.578072 -0.425309 -0.059275 -12.151778 4.841974 7.551447 26.237806 4.056116 1.398660 -12.828554 1.545811 -9.147948 0.000000 0.000000 0.000000 -0.578072 -0.425309 -0.059275 -11.826236 1.323676 -2.600757 27.180456 -1.447954 -2.353082 -14.644494 -0.944201 5.524129 0.000000 0.000000 0.000000 -0.578072 -0.425309 -0.059275 0.000000 0.000000 0.000000 0.596733 -0.016371 0.132928 -1.620709 -0.015913 0.201612 0.000000 0.000000 0.000000 -1.620686 -0.010844 0.202122 -0.183772 -0.218591 -0.586454 0.000000 0.000000 0.000000 -1.620686 -0.010844 0.202122 0.989895 -13.432068 -11.270861 15.974704 -19.827769 -67.490110 0.000001 -17.727054 0.000005 0.000000 0.000000 0.000000 -1.620686 -0.010844 0.202122 1.677951 9.285100 10.547350 6.831331 25.636372 64.012034 0.000012 12.156155 -0.000001 0.000000 0.000000 0.000000 
0.167385 80.411316 0.634630 0.000000 0.000000 0.000000 -0.549456 -0.471473 -0.013669 -12.145575 4.521279 7.340028 26.214490 4.473956 1.450639 -12.786365 1.552924 -9.252961 0.000000 0.000000 0.000000 -0.549456 -0.471473 -0.013669 -11.892703 1.271608 -2.725269 27.159498 -1.305686 -2.357869 -14.588686 -0.953364 5.556921 0.000000 0.000000 0.000000 -0.549456 -0.471473 -0.013669 0.000000 0.000000 0.000000 0.684606 0.014279 0.090950 -1.531647 0.017837 0.192321 0.000000 0.000000 0.000000 -1.531728 0.021319 0.191508 -0.203620 -0.243926 -0.586310 0.000000 0.000000 0.000000 -1.531728 0.021319 0.191508 0.990200 -13.467994 -11.283712 15.654194 -19.912319 -67.518285 -0.000005 -17.801210 -0.000006 0.000000 0.000000 0.000000 -1.531728 0.021319 0.191508 1.680808 9.272826 10.578682 6.855614 25.900378 63.813126 0.000013 12.117314 -0.000020 0.000000 0.000000 0.000000 
0.231718 80.418594 0.571791 0.000000 0.000000 0.000000 -0.505418 -0.511455 -0.012159 -12.237039 4.352556 7.142668 26.246807 4.756523 1.660497 -12.750315 1.573514 -9.438923 0.000000 0.000000 0.000000 -0.505418 -0.511455 -0.012159 -11.995320 0.999354 -2.781884 27.112791 -1.000311 -2.491287 -14.499245 -0.963286 5.603509 0.000000 0.000000 0.000000 -0.505418 -0.511455 -0.012159 0.000000 0.000000 0.000000 0.792394 0.027012 0.049874 -1.416821 0.032360 0.182690 0.000000 0.000000 0.000000 -1.416967 0.034539 0.181314 -0.196661 -0.283262 -0.562395 0.000000 0.000000 0.000000 -1.416967 0.034539 0.181314 0.988384 -13.373516 -11.280129 15.352532 -20.245307 -67.493689 -0.000000 -17.915207 -0.000007 0.000000 0.000000 0.000000 -1.416967 0.034539 0.181314 1.697832 9.302905 10.690755 6.871400 26.197378 63.484669 0.000004 12.093677 0.000007 0.000000 0.000000 0.000000 
0.293194 80.422295 0.491800 0.000000 0.000000 0.000000 -0.425909 -0.568935 -0.034385 -12.389962 4.069188 6.983287 26.327878 5.141833 1.805495 -12.719994 1.593185 -9.620671 0.000000 0.000000 0.000000 -0.425909 -0.568935 -0.034385 -12.143604 0.885890 -2.746031 27.067270 -0.800033 -2.663722 -14.396485 -0.978534 5.683035 0.000000 0.000000 0.000000 -0.425909 -0.568935 -0.034385 0.000000 0.000000 0.000000 0.907570 0.044329 0.014073 -1.283158 0.051745 0.164989 0.000000 0.000000 0.000000 -1.283399 0.052890 0.162875 -0.245232 -0.297632 -0.538044 0.000000 0.000000 0.000000 -1.283399 0.052890 0.162875 0.987832 -13.326617 -11.267792 15.005618 -20.510582 -67.481777 -0.000008 -18.072923 -0.000017 0.000000 0.000000 0.000000 -1.283399 0.052890 0.162875 1.699992 9.272806 10.729706 6.839896 26.649880 63.222464 0.000011 12.070232 -0.000020 0.000000 0.000000 0.000000 
